<svg width="25" height="25" viewBox="0 0 25 25" fill="none" xmlns="http://www.w3.org/2000/svg">
<path d="M16.501 17.5566L18.5677 15.4892C18.846 15.2142 19.1982 15.0259 19.5814 14.9473C19.9646 14.8686 20.3625 14.903 20.7265 15.0461L23.2453 16.0522C23.6132 16.2016 23.9287 16.4566 24.152 16.7851C24.3753 17.1136 24.4964 17.5009 24.5 17.8981V22.513C24.4979 22.7833 24.4411 23.0502 24.3331 23.2979C24.2251 23.5456 24.0681 23.7689 23.8715 23.9543C23.675 24.1397 23.443 24.2834 23.1895 24.3767C22.936 24.4701 22.6662 24.5111 22.3965 24.4974C4.74704 23.3991 1.18579 8.44686 0.512287 2.72441C0.481022 2.4434 0.509588 2.15895 0.596104 1.88977C0.68262 1.6206 0.825125 1.3728 1.01425 1.16268C1.20337 0.952554 1.43481 0.784873 1.69337 0.670663C1.95192 0.556453 2.23171 0.498302 2.51434 0.500038H6.97052C7.36817 0.501215 7.75637 0.621379 8.0852 0.845073C8.41403 1.06877 8.66845 1.38576 8.81573 1.75529L9.82136 4.27501C9.96922 4.6378 10.0069 5.03614 9.92982 5.42025C9.8527 5.80436 9.66415 6.15723 9.38774 6.43478L7.32111 8.50224C7.32111 8.50224 8.51127 16.5598 16.501 17.5566Z" fill="#1E2432"/>
</svg>
