<svg width="23" height="24" viewBox="0 0 23 24" fill="none" xmlns="http://www.w3.org/2000/svg">
<path d="M11.4999 8.12225C9.25621 8.12225 7.43736 9.94109 7.43736 12.1847C7.43736 14.4284 9.25621 16.2472 11.4999 16.2472C13.7435 16.2472 15.5624 14.4284 15.5624 12.1847C15.5624 9.94109 13.7435 8.12225 11.4999 8.12225Z" fill="white"/>
<path fill-rule="evenodd" clip-rule="evenodd" d="M4.96178 1.03658C9.27194 0.554862 13.7278 0.554862 18.038 1.03659C20.411 1.3018 22.325 3.17152 22.6035 5.55284C23.1188 9.9591 23.1188 14.4104 22.6035 18.8167C22.325 21.198 20.411 23.0677 18.038 23.3329C13.7278 23.8146 9.27194 23.8146 4.96179 23.3329C2.58879 23.0677 0.674796 21.198 0.396279 18.8167C-0.119072 14.4104 -0.119072 9.9591 0.396279 5.55284C0.674796 3.17152 2.58879 1.3018 4.96178 1.03658ZM17.7499 4.68475C17.0595 4.68475 16.4999 5.24439 16.4999 5.93475C16.4999 6.6251 17.0595 7.18475 17.7499 7.18475C18.4402 7.18475 18.9999 6.6251 18.9999 5.93475C18.9999 5.24439 18.4402 4.68475 17.7499 4.68475ZM5.56236 12.1847C5.56236 8.90556 8.22067 6.24725 11.4999 6.24725C14.7791 6.24725 17.4374 8.90556 17.4374 12.1847C17.4374 15.4639 14.7791 18.1222 11.4999 18.1222C8.22067 18.1222 5.56236 15.4639 5.56236 12.1847Z" fill="white"/>
</svg>
