<svg width="209" height="192" viewBox="0 0 209 192" fill="none" xmlns="http://www.w3.org/2000/svg">
<path d="M147.212 35.7319H146.459V106.976H147.212V35.7319Z" fill="#424146"/>
<path d="M82.1985 79.0976H82.1733L47 77.5363L47.0252 76.805L82.1985 78.3657L161.975 76L162 76.7313L82.1985 79.0976Z" fill="#424146"/>
<path d="M53.9697 77.5488H53.2168V99.2318H53.9697V77.5488Z" fill="#424146"/>
<path d="M75.7256 77.5488H74.9727V111.622H75.7256V77.5488Z" fill="#424146"/>
<path d="M152.438 86.8418L88.959 107.811L89.1965 108.525L152.675 87.5551L152.438 86.8418Z" fill="#424146"/>
<path d="M89.7119 77.5488H88.959V113.171H89.7119V77.5488Z" fill="#424146"/>
<path d="M74.6526 106.976L59.4461 99.4986L53.679 100.595L53.4326 100.545L47 96.7825L47.3697 96.1343L53.679 99.823L59.4215 98.7514L59.6433 98.7763L74.973 106.303L74.6526 106.976Z" fill="#424146"/>
<path d="M77.2803 48.1221H76.5273V68.2562H77.2803V48.1221Z" fill="#424146"/>
<path d="M88.1592 43.4756H87.4062V68.2561H88.1592V43.4756Z" fill="#424146"/>
<path d="M67.9561 77.5488H67.2031V102.329H67.9561V77.5488Z" fill="#424146"/>
<path d="M100.591 3.20752H99.8379V130.208H100.591V3.20752Z" fill="#424146"/>
<path d="M60.1846 77.5488H59.4316V99.2318H60.1846V77.5488Z" fill="#424146"/>
<path d="M60.1854 68.2565H59.4316V47.8051L59.6075 47.7056L99.509 24.8906L99.6848 25.015L161.999 60.6183L161.623 61.2651L99.509 25.7614L60.1854 48.2529V68.2565Z" fill="#424146"/>
<path d="M116.132 14.0488H115.379V120.915H116.132V14.0488Z" fill="#424146"/>
<path d="M130.118 23.3418H129.365V114.72H130.118V23.3418Z" fill="#424146"/>
<path d="M140.997 31.0854H140.244V110.073H140.997V31.0854Z" fill="#424146"/>
<path d="M81.9425 66.7075H81.1895V116.268H81.9425V66.7075Z" fill="#424146"/>
<path d="M67.9546 65.1588H67.2031V50.1568L99.0426 37.2808L152.676 58.9986L152.376 59.675L99.0426 38.0538L67.9546 50.64V65.1588Z" fill="#424146"/>
<path d="M82.2532 116.268L82.1025 116.193L47 95.9453V69.6253L82.3787 65.1587H82.4289L153.237 71.2057L153.161 71.9586L82.4038 65.9116L47.7533 70.2773V95.5184L82.3034 115.44L161.723 84.529L162 85.2317L82.2532 116.268Z" fill="#424146"/>
<path d="M99.837 24.8906L59.4316 47.8179V68.2565L67.7173 67.3011V51.9408L99.837 38.6923V24.8906Z" fill="#424146"/>
<path d="M59.4316 66.7076V46.1286L59.6324 46.0305L99.837 23.3418V37.6909L68.3409 50.6172V65.6775L59.4316 66.7076ZM60.1845 46.5701V65.8987L67.588 65.0646V50.1758L99.0842 37.2003V24.6172L60.1845 46.5701Z" fill="#424146"/>
<path d="M53.5181 100.061L47 96.4288V71.0557L81.1892 66.7075V116.268L74.5481 112.414V78.4922L53.5181 77.5286V100.061Z" fill="#424146"/>
<path d="M24.2693 170.592C21.8373 170.592 19.7253 170.144 17.9333 169.248C16.1413 168.33 14.7653 167.093 13.8053 165.536C12.8453 163.978 12.3653 162.25 12.3653 160.352C12.3653 158.325 12.8987 156.512 13.9653 154.912C15.0533 153.312 16.5467 152.074 18.4453 151.2C20.344 150.304 22.4773 149.856 24.8453 149.856C25.8693 149.856 26.8933 149.941 27.9173 150.112C28.9413 150.261 29.7627 150.464 30.3813 150.72C30.616 150.805 30.744 150.88 30.7653 150.944C30.808 150.986 30.84 151.157 30.8613 151.456L31.2773 155.904C31.2773 155.968 31.2133 156.01 31.0853 156.032C30.9787 156.053 30.9147 156.021 30.8933 155.936C30.616 155.232 30.168 154.464 29.5493 153.632C28.9307 152.8 28.12 152.074 27.1173 151.456C26.1147 150.837 24.952 150.528 23.6293 150.528C22.264 150.528 21.016 150.901 19.8853 151.648C18.7547 152.394 17.8587 153.461 17.1973 154.848C16.5573 156.234 16.2373 157.845 16.2373 159.68C16.2373 161.685 16.6107 163.477 17.3573 165.056C18.1253 166.634 19.1813 167.861 20.5253 168.736C21.8693 169.61 23.384 170.048 25.0693 170.048C25.944 170.048 26.616 169.952 27.0853 169.76C27.5547 169.568 27.896 169.194 28.1093 168.64C28.3227 168.085 28.4293 167.264 28.4293 166.176C28.4293 165.066 28.3653 164.298 28.2373 163.872C28.1093 163.424 27.832 163.125 27.4053 162.976C27 162.826 26.2747 162.752 25.2293 162.752C25.1013 162.752 25.0373 162.666 25.0373 162.496C25.0373 162.432 25.048 162.378 25.0693 162.336C25.112 162.272 25.1547 162.24 25.1973 162.24C27.0107 162.346 28.4827 162.4 29.6133 162.4C30.7013 162.4 31.832 162.368 33.0053 162.304C33.0907 162.304 33.1333 162.378 33.1333 162.528C33.1547 162.677 33.112 162.752 33.0053 162.752C32.6213 162.73 32.344 162.805 32.1733 162.976C32.024 163.125 31.928 163.445 31.8853 163.936C31.8427 164.426 31.8213 165.28 31.8213 166.496C31.8213 167.456 31.8533 168.138 31.9173 168.544C32.0027 168.949 32.0453 169.205 32.0453 169.312C32.0453 169.44 32.024 169.525 31.9813 169.568C31.9387 169.61 31.8427 169.653 31.6933 169.696C28.9413 170.293 26.4667 170.592 24.2693 170.592ZM50.0756 165.12C50.0756 165.077 50.1182 165.056 50.2036 165.056C50.2676 165.056 50.3209 165.077 50.3636 165.12C50.4276 165.141 50.4596 165.162 50.4596 165.184C50.2462 166.848 50.1396 168.362 50.1396 169.728C50.1396 169.898 50.1076 170.026 50.0436 170.112C49.9796 170.176 49.8516 170.208 49.6596 170.208H35.5156C35.4516 170.208 35.4196 170.144 35.4196 170.016C35.4196 169.888 35.4516 169.824 35.5156 169.824C36.1982 169.824 36.6889 169.77 36.9876 169.664C37.3076 169.557 37.5209 169.354 37.6276 169.056C37.7342 168.736 37.7876 168.256 37.7876 167.616V152.8C37.7876 152.16 37.7342 151.69 37.6276 151.392C37.5209 151.093 37.3076 150.89 36.9876 150.784C36.6676 150.656 36.1769 150.592 35.5156 150.592C35.4516 150.592 35.4196 150.528 35.4196 150.4C35.4196 150.272 35.4516 150.208 35.5156 150.208H49.0836C49.2969 150.208 49.4036 150.304 49.4036 150.496L49.4676 154.752C49.4676 154.794 49.4036 154.826 49.2756 154.848C49.1689 154.869 49.1049 154.848 49.0836 154.784C48.7422 153.546 48.1662 152.629 47.3556 152.032C46.5449 151.434 45.4782 151.136 44.1556 151.136H43.1956C42.5556 151.136 42.0862 151.274 41.7876 151.552C41.4889 151.829 41.3396 152.256 41.3396 152.832V159.36H43.9956C45.2329 159.36 46.1822 159.146 46.8436 158.72C47.5049 158.293 47.8356 157.696 47.8356 156.928C47.8356 156.864 47.8889 156.832 47.9956 156.832C48.1236 156.832 48.1876 156.864 48.1876 156.928L48.1556 159.808L48.1876 161.344C48.2302 162.069 48.2516 162.645 48.2516 163.072C48.2516 163.114 48.1876 163.136 48.0596 163.136C47.9316 163.136 47.8676 163.114 47.8676 163.072C47.8676 162.197 47.5262 161.514 46.8436 161.024C46.1822 160.512 45.2222 160.256 43.9636 160.256H41.3396V167.488C41.3396 168.106 41.4569 168.565 41.6916 168.864C41.9262 169.162 42.2996 169.312 42.8116 169.312H43.8676C45.5316 169.312 46.8649 168.97 47.8676 168.288C48.8702 167.605 49.6062 166.549 50.0756 165.12ZM63.5718 170.592C61.5878 170.592 59.8172 170.133 58.2598 169.216C56.7238 168.277 55.5292 167.018 54.6758 165.44C53.8438 163.84 53.4278 162.101 53.4278 160.224C53.4278 158.026 53.9825 156.149 55.0918 154.592C56.2012 153.013 57.6198 151.829 59.3478 151.04C61.0972 150.25 62.8785 149.856 64.6918 149.856C66.7185 149.856 68.4998 150.336 70.0358 151.296C71.5718 152.234 72.7452 153.482 73.5558 155.04C74.3878 156.597 74.8038 158.25 74.8038 160C74.8038 161.941 74.2918 163.722 73.2678 165.344C72.2438 166.965 70.8678 168.245 69.1398 169.184C67.4332 170.122 65.5772 170.592 63.5718 170.592ZM64.6278 169.792C65.8225 169.792 66.8892 169.45 67.8278 168.768C68.7878 168.064 69.5345 167.05 70.0678 165.728C70.6012 164.384 70.8678 162.784 70.8678 160.928C70.8678 158.965 70.5692 157.216 69.9718 155.68C69.3745 154.122 68.5105 152.906 67.3798 152.032C66.2492 151.157 64.9265 150.72 63.4118 150.72C61.4705 150.72 59.9772 151.456 58.9318 152.928C57.8865 154.378 57.3638 156.416 57.3638 159.04C57.3638 161.109 57.6732 162.965 58.2918 164.608C58.9318 166.229 59.7958 167.498 60.8838 168.416C61.9932 169.333 63.2412 169.792 64.6278 169.792ZM103.016 169.824C103.058 169.824 103.08 169.888 103.08 170.016C103.08 170.144 103.058 170.208 103.016 170.208C102.29 170.208 101.714 170.197 101.288 170.176L98.9198 170.144L96.5198 170.176C96.1145 170.197 95.5598 170.208 94.8558 170.208C94.7918 170.208 94.7598 170.144 94.7598 170.016C94.7598 169.888 94.7918 169.824 94.8558 169.824C95.7518 169.824 96.3598 169.717 96.6798 169.504C96.9998 169.29 97.1598 168.842 97.1598 168.16L97.1278 167.616L96.4558 154.528L89.8638 169.984C89.8212 170.069 89.7358 170.112 89.6078 170.112C89.4798 170.112 89.3945 170.069 89.3518 169.984L81.2558 154.592L80.9998 166.144C80.9785 167.296 81.2025 168.202 81.6718 168.864C82.1625 169.504 82.8452 169.824 83.7198 169.824C83.7838 169.824 83.8158 169.888 83.8158 170.016C83.8158 170.144 83.7838 170.208 83.7198 170.208C83.1438 170.208 82.6958 170.197 82.3758 170.176L80.6158 170.144L78.5998 170.176C78.2585 170.197 77.7998 170.208 77.2238 170.208C77.1598 170.208 77.1278 170.144 77.1278 170.016C77.1278 169.888 77.1598 169.824 77.2238 169.824C78.0985 169.824 78.7918 169.493 79.3038 168.832C79.8158 168.17 80.0825 167.274 80.1038 166.144L80.3918 152.896L80.3598 152.864C79.9332 152.074 79.4852 151.498 79.0158 151.136C78.5678 150.773 78.0452 150.592 77.4478 150.592C77.3838 150.592 77.3518 150.528 77.3518 150.4C77.3518 150.272 77.3838 150.208 77.4478 150.208L78.9518 150.24C79.2505 150.261 79.6345 150.272 80.1038 150.272L81.7998 150.24C81.9918 150.218 82.2372 150.208 82.5358 150.208C82.8132 150.208 83.0265 150.304 83.1758 150.496C83.3252 150.688 83.6025 151.146 84.0078 151.872L90.9838 164.96L97.0638 151.008C97.1918 150.709 97.3198 150.506 97.4478 150.4C97.5972 150.272 97.7892 150.208 98.0238 150.208C98.2158 150.208 98.4292 150.218 98.6638 150.24C98.9198 150.261 99.2078 150.272 99.5278 150.272L101.416 150.24C101.714 150.218 102.141 150.208 102.696 150.208C102.76 150.208 102.792 150.272 102.792 150.4C102.792 150.528 102.76 150.592 102.696 150.592C101.693 150.592 100.968 150.794 100.52 151.2C100.072 151.605 99.8692 152.234 99.9118 153.088L100.68 167.616C100.722 168.277 100.797 168.757 100.904 169.056C101.032 169.354 101.245 169.557 101.544 169.664C101.864 169.77 102.354 169.824 103.016 169.824ZM119.669 165.12C119.669 165.077 119.712 165.056 119.797 165.056C119.861 165.056 119.915 165.077 119.957 165.12C120.021 165.141 120.053 165.162 120.053 165.184C119.84 166.848 119.733 168.362 119.733 169.728C119.733 169.898 119.701 170.026 119.637 170.112C119.573 170.176 119.445 170.208 119.253 170.208H105.109C105.045 170.208 105.013 170.144 105.013 170.016C105.013 169.888 105.045 169.824 105.109 169.824C105.792 169.824 106.283 169.77 106.581 169.664C106.901 169.557 107.115 169.354 107.221 169.056C107.328 168.736 107.381 168.256 107.381 167.616V152.8C107.381 152.16 107.328 151.69 107.221 151.392C107.115 151.093 106.901 150.89 106.581 150.784C106.261 150.656 105.771 150.592 105.109 150.592C105.045 150.592 105.013 150.528 105.013 150.4C105.013 150.272 105.045 150.208 105.109 150.208H118.677C118.891 150.208 118.997 150.304 118.997 150.496L119.061 154.752C119.061 154.794 118.997 154.826 118.869 154.848C118.763 154.869 118.699 154.848 118.677 154.784C118.336 153.546 117.76 152.629 116.949 152.032C116.139 151.434 115.072 151.136 113.749 151.136H112.789C112.149 151.136 111.68 151.274 111.381 151.552C111.083 151.829 110.933 152.256 110.933 152.832V159.36H113.589C114.827 159.36 115.776 159.146 116.437 158.72C117.099 158.293 117.429 157.696 117.429 156.928C117.429 156.864 117.483 156.832 117.589 156.832C117.717 156.832 117.781 156.864 117.781 156.928L117.749 159.808L117.781 161.344C117.824 162.069 117.845 162.645 117.845 163.072C117.845 163.114 117.781 163.136 117.653 163.136C117.525 163.136 117.461 163.114 117.461 163.072C117.461 162.197 117.12 161.514 116.437 161.024C115.776 160.512 114.816 160.256 113.557 160.256H110.933V167.488C110.933 168.106 111.051 168.565 111.285 168.864C111.52 169.162 111.893 169.312 112.405 169.312H113.461C115.125 169.312 116.459 168.97 117.461 168.288C118.464 167.605 119.2 166.549 119.669 165.12ZM128.558 150.944C126.019 150.944 124.195 152.597 123.086 155.904C123.064 155.968 123 156 122.894 156C122.787 155.978 122.734 155.936 122.734 155.872C122.819 155.018 122.915 153.92 123.022 152.576C123.128 151.21 123.182 150.186 123.182 149.504C123.182 149.397 123.235 149.344 123.342 149.344C123.47 149.344 123.534 149.397 123.534 149.504C123.534 149.973 124.142 150.208 125.358 150.208C127.192 150.272 129.336 150.304 131.79 150.304C133.048 150.304 134.382 150.282 135.79 150.24L137.966 150.208C138.776 150.208 139.363 150.154 139.726 150.048C140.11 149.941 140.355 149.728 140.462 149.408C140.483 149.322 140.547 149.28 140.654 149.28C140.782 149.28 140.846 149.322 140.846 149.408C140.782 150.048 140.707 151.072 140.622 152.48C140.558 153.888 140.526 155.018 140.526 155.872C140.526 155.936 140.472 155.968 140.366 155.968C140.259 155.968 140.195 155.936 140.174 155.872C139.854 154.229 139.256 153.002 138.382 152.192C137.507 151.36 136.43 150.944 135.15 150.944C134.531 150.944 134.115 151.082 133.902 151.36C133.71 151.616 133.614 152.117 133.614 152.864V167.616C133.614 168.277 133.678 168.757 133.806 169.056C133.934 169.354 134.179 169.557 134.542 169.664C134.904 169.77 135.48 169.824 136.27 169.824C136.334 169.824 136.366 169.888 136.366 170.016C136.366 170.144 136.334 170.208 136.27 170.208C135.502 170.208 134.894 170.197 134.446 170.176L131.79 170.144L129.198 170.176C128.75 170.197 128.131 170.208 127.342 170.208C127.278 170.208 127.246 170.144 127.246 170.016C127.246 169.888 127.278 169.824 127.342 169.824C128.11 169.824 128.675 169.77 129.038 169.664C129.422 169.557 129.678 169.354 129.806 169.056C129.955 168.736 130.03 168.256 130.03 167.616V152.8C130.03 152.074 129.934 151.584 129.742 151.328C129.55 151.072 129.155 150.944 128.558 150.944ZM164.672 169.824C164.715 169.824 164.736 169.888 164.736 170.016C164.736 170.144 164.715 170.208 164.672 170.208H158.976C158.507 170.208 157.632 169.365 156.352 167.68C155.072 165.973 153.525 163.594 151.712 160.544C151.541 160.565 151.296 160.576 150.976 160.576C150.144 160.576 149.557 160.565 149.216 160.544V167.616C149.216 168.277 149.269 168.757 149.376 169.056C149.483 169.354 149.685 169.557 149.984 169.664C150.304 169.77 150.805 169.824 151.488 169.824C151.531 169.824 151.552 169.888 151.552 170.016C151.552 170.144 151.531 170.208 151.488 170.208C150.784 170.208 150.229 170.197 149.824 170.176L147.392 170.144L145.056 170.176C144.629 170.197 144.053 170.208 143.328 170.208C143.264 170.208 143.232 170.144 143.232 170.016C143.232 169.888 143.264 169.824 143.328 169.824C144.011 169.824 144.501 169.77 144.8 169.664C145.12 169.557 145.333 169.354 145.44 169.056C145.568 168.736 145.632 168.256 145.632 167.616V152.8C145.632 152.16 145.579 151.69 145.472 151.392C145.365 151.093 145.152 150.89 144.832 150.784C144.512 150.656 144.021 150.592 143.36 150.592C143.317 150.592 143.296 150.528 143.296 150.4C143.296 150.272 143.317 150.208 143.36 150.208L145.056 150.24C146.037 150.282 146.816 150.304 147.392 150.304C148.117 150.304 148.875 150.272 149.664 150.208C149.941 150.186 150.283 150.165 150.688 150.144C151.115 150.122 151.584 150.112 152.096 150.112C154.037 150.112 155.541 150.474 156.608 151.2C157.675 151.904 158.208 152.896 158.208 154.176C158.208 155.349 157.888 156.416 157.248 157.376C156.608 158.314 155.755 159.072 154.688 159.648C156.395 162.208 157.824 164.213 158.976 165.664C160.128 167.114 161.152 168.17 162.048 168.832C162.944 169.493 163.819 169.824 164.672 169.824ZM149.216 159.648C149.728 159.733 150.347 159.776 151.072 159.776C152.309 159.776 153.195 159.434 153.728 158.752C154.283 158.048 154.56 156.928 154.56 155.392C154.56 153.642 154.304 152.437 153.792 151.776C153.28 151.114 152.544 150.784 151.584 150.784C150.731 150.784 150.123 150.944 149.76 151.264C149.397 151.584 149.216 152.117 149.216 152.864V159.648ZM171.624 167.616C171.624 168.277 171.677 168.757 171.784 169.056C171.89 169.354 172.093 169.557 172.392 169.664C172.712 169.77 173.213 169.824 173.896 169.824C173.96 169.824 173.992 169.888 173.992 170.016C173.992 170.144 173.96 170.208 173.896 170.208C173.192 170.208 172.637 170.197 172.232 170.176L169.8 170.144L167.432 170.176C167.005 170.197 166.429 170.208 165.704 170.208C165.661 170.208 165.64 170.144 165.64 170.016C165.64 169.888 165.661 169.824 165.704 169.824C166.386 169.824 166.888 169.77 167.208 169.664C167.528 169.557 167.741 169.354 167.848 169.056C167.976 168.736 168.04 168.256 168.04 167.616V152.8C168.04 152.16 167.976 151.69 167.848 151.392C167.741 151.093 167.528 150.89 167.208 150.784C166.888 150.656 166.386 150.592 165.704 150.592C165.661 150.592 165.64 150.528 165.64 150.4C165.64 150.272 165.661 150.208 165.704 150.208L167.432 150.24C168.413 150.282 169.202 150.304 169.8 150.304C170.461 150.304 171.282 150.282 172.264 150.24L173.896 150.208C173.96 150.208 173.992 150.272 173.992 150.4C173.992 150.528 173.96 150.592 173.896 150.592C173.234 150.592 172.744 150.656 172.424 150.784C172.104 150.912 171.89 151.136 171.784 151.456C171.677 151.754 171.624 152.224 171.624 152.864V167.616ZM198.241 169.824C198.348 169.824 198.401 169.888 198.401 170.016C198.401 170.144 198.348 170.208 198.241 170.208C197.815 170.208 197.153 170.186 196.257 170.144C195.319 170.101 194.647 170.08 194.241 170.08C193.708 170.08 193.057 170.101 192.289 170.144C191.564 170.186 190.988 170.208 190.561 170.208C190.476 170.208 190.433 170.144 190.433 170.016C190.433 169.888 190.476 169.824 190.561 169.824C191.116 169.824 191.511 169.77 191.745 169.664C192.001 169.536 192.129 169.322 192.129 169.024C192.129 168.661 191.916 168.053 191.489 167.2L189.313 162.88H181.441L180.193 165.664C179.916 166.282 179.777 166.858 179.777 167.392C179.777 168.16 180.044 168.757 180.577 169.184C181.132 169.61 181.868 169.824 182.785 169.824C182.892 169.824 182.945 169.888 182.945 170.016C182.945 170.144 182.892 170.208 182.785 170.208C182.401 170.208 181.847 170.186 181.121 170.144C180.311 170.101 179.607 170.08 179.009 170.08C178.433 170.08 177.74 170.101 176.929 170.144C176.204 170.186 175.617 170.208 175.169 170.208C175.084 170.208 175.041 170.144 175.041 170.016C175.041 169.888 175.084 169.824 175.169 169.824C175.767 169.824 176.268 169.706 176.673 169.472C177.079 169.216 177.484 168.778 177.889 168.16C178.295 167.52 178.775 166.581 179.329 165.344L186.273 150.08C186.316 150.016 186.412 149.984 186.561 149.984C186.732 149.984 186.828 150.016 186.849 150.08L194.849 165.824C195.596 167.338 196.215 168.384 196.705 168.96C197.196 169.536 197.708 169.824 198.241 169.824ZM181.857 161.984H188.833L185.153 154.688L181.857 161.984Z" fill="#424146"/>
</svg>
