<svg width="117" height="107" viewBox="0 0 117 107" fill="none" xmlns="http://www.w3.org/2000/svg">
<path d="M84.5235 19.0586H84.084V60.8065H84.5235V19.0586Z" fill="white"/>
<path d="M46.5558 44.4704H46.5411L26 43.5555L26.0147 43.127L46.5558 44.0415L93.1449 42.6553L93.1597 43.0838L46.5558 44.4704Z" fill="white"/>
<path d="M30.0706 43.563H29.6309V56.2689H30.0706V43.563Z" fill="white"/>
<path d="M42.7757 43.563H42.3359V63.5294H42.7757V43.563Z" fill="white"/>
<path d="M87.5754 49.0083L50.5039 61.2962L50.6426 61.7142L87.714 49.4263L87.5754 49.0083Z" fill="white"/>
<path d="M50.9436 43.563H50.5039V64.4369H50.9436V43.563Z" fill="white"/>
<path d="M42.149 60.8066L33.2685 56.4251L29.9005 57.0676L29.7566 57.0384L26 54.8335L26.2159 54.4536L29.9005 56.6152L33.2541 55.9872L33.3837 56.0018L42.3361 60.4121L42.149 60.8066Z" fill="white"/>
<path d="M43.6839 26.3193H43.2441V38.1177H43.6839V26.3193Z" fill="white"/>
<path d="M50.0355 23.5967H49.5957V38.1177H50.0355V23.5967Z" fill="white"/>
<path d="M38.2385 43.563H37.7988V58.084H38.2385V43.563Z" fill="white"/>
<path d="M57.2971 0H56.8574V74.4202H57.2971V0Z" fill="white"/>
<path d="M33.6995 43.563H33.2598V56.2689H33.6995V43.563Z" fill="white"/>
<path d="M33.7 38.1178H33.2598V26.1336L33.3625 26.0753L56.6648 12.7061L56.7675 12.7789L93.1589 33.6419L92.9389 34.021L56.6648 13.2163L33.7 26.396V38.1178Z" fill="white"/>
<path d="M66.3734 6.35303H65.9336V68.9749H66.3734V6.35303Z" fill="white"/>
<path d="M74.541 11.7983H74.1016V65.3446H74.541V11.7983Z" fill="white"/>
<path d="M80.8926 16.3359H80.4531V62.6217H80.8926V16.3359Z" fill="white"/>
<path d="M46.4065 37.21H45.9668V66.252H46.4065V37.21Z" fill="white"/>
<path d="M38.2377 36.3024H37.7988V27.5115L56.393 19.9663L87.7148 32.6926L87.5393 33.089L56.393 20.4193L38.2377 27.7946V36.3024Z" fill="white"/>
<path d="M46.5878 66.2523L46.4998 66.2082L26 54.3432V38.9201L46.6611 36.3027H46.6904L88.0418 39.8462L87.9978 40.2874L46.6757 36.7439L26.4399 39.3021V54.0931L46.6171 65.767L92.9981 47.6534L93.1597 48.0652L46.5878 66.2523Z" fill="white"/>
<path d="M56.8564 12.7061L33.2598 26.1411V38.1178L38.0986 37.558V28.5571L56.8564 20.7936V12.7061Z" fill="white"/>
<path d="M33.2598 37.2101V25.1511L33.377 25.0936L56.8564 11.7983V20.2067L38.4628 27.7814V36.6064L33.2598 37.2101ZM33.6994 25.4098V36.7361L38.0231 36.2473V27.5226L56.4167 19.9192V12.5457L33.6994 25.4098Z" fill="white"/>
<path d="M29.8065 56.7546L26 54.6262V39.7579L45.9664 37.21V66.252L42.088 63.9934V44.1156L29.8065 43.551V56.7546Z" fill="white"/>
<path d="M9.35555 103.425C7.83555 103.425 6.51555 103.145 5.39555 102.585C4.27555 102.011 3.41555 101.238 2.81555 100.265C2.21555 99.2912 1.91555 98.2112 1.91555 97.0246C1.91555 95.7579 2.24888 94.6246 2.91555 93.6246C3.59555 92.6246 4.52888 91.8512 5.71555 91.3046C6.90221 90.7446 8.23555 90.4646 9.71555 90.4646C10.3555 90.4646 10.9955 90.5179 11.6355 90.6246C12.2755 90.7179 12.7889 90.8446 13.1755 91.0046C13.3222 91.0579 13.4022 91.1046 13.4155 91.1446C13.4422 91.1712 13.4622 91.2779 13.4755 91.4646L13.7355 94.2446C13.7355 94.2846 13.6955 94.3112 13.6155 94.3246C13.5489 94.3379 13.5089 94.3179 13.4955 94.2646C13.3222 93.8246 13.0422 93.3446 12.6555 92.8246C12.2689 92.3046 11.7622 91.8512 11.1355 91.4646C10.5089 91.0779 9.78221 90.8846 8.95555 90.8846C8.10221 90.8846 7.32221 91.1179 6.61555 91.5846C5.90888 92.0512 5.34888 92.7179 4.93555 93.5846C4.53555 94.4512 4.33555 95.4579 4.33555 96.6046C4.33555 97.8579 4.56888 98.9779 5.03555 99.9646C5.51555 100.951 6.17555 101.718 7.01555 102.265C7.85555 102.811 8.80221 103.085 9.85555 103.085C10.4022 103.085 10.8222 103.025 11.1155 102.905C11.4089 102.785 11.6222 102.551 11.7555 102.205C11.8889 101.858 11.9555 101.345 11.9555 100.665C11.9555 99.9712 11.9155 99.4912 11.8355 99.2246C11.7555 98.9446 11.5822 98.7579 11.3155 98.6646C11.0622 98.5712 10.6089 98.5246 9.95555 98.5246C9.87555 98.5246 9.83555 98.4712 9.83555 98.3646C9.83555 98.3246 9.84221 98.2912 9.85555 98.2646C9.88221 98.2246 9.90888 98.2046 9.93555 98.2046C11.0689 98.2712 11.9889 98.3046 12.6955 98.3046C13.3755 98.3046 14.0822 98.2846 14.8155 98.2446C14.8689 98.2446 14.8955 98.2912 14.8955 98.3846C14.9089 98.4779 14.8822 98.5246 14.8155 98.5246C14.5755 98.5112 14.4022 98.5579 14.2955 98.6646C14.2022 98.7579 14.1422 98.9579 14.1155 99.2646C14.0889 99.5712 14.0755 100.105 14.0755 100.865C14.0755 101.465 14.0955 101.891 14.1355 102.145C14.1889 102.398 14.2155 102.558 14.2155 102.625C14.2155 102.705 14.2022 102.758 14.1755 102.785C14.1489 102.811 14.0889 102.838 13.9955 102.865C12.2755 103.238 10.7289 103.425 9.35555 103.425ZM25.4845 100.005C25.4845 99.9779 25.5111 99.9646 25.5645 99.9646C25.6045 99.9646 25.6378 99.9779 25.6645 100.005C25.7045 100.018 25.7245 100.031 25.7245 100.045C25.5911 101.085 25.5245 102.031 25.5245 102.885C25.5245 102.991 25.5045 103.071 25.4645 103.125C25.4245 103.165 25.3445 103.185 25.2245 103.185H16.3845C16.3445 103.185 16.3245 103.145 16.3245 103.065C16.3245 102.985 16.3445 102.945 16.3845 102.945C16.8111 102.945 17.1178 102.911 17.3045 102.845C17.5045 102.778 17.6378 102.651 17.7045 102.465C17.7711 102.265 17.8045 101.965 17.8045 101.565V92.3046C17.8045 91.9046 17.7711 91.6112 17.7045 91.4246C17.6378 91.2379 17.5045 91.1112 17.3045 91.0446C17.1045 90.9646 16.7978 90.9246 16.3845 90.9246C16.3445 90.9246 16.3245 90.8846 16.3245 90.8046C16.3245 90.7246 16.3445 90.6846 16.3845 90.6846H24.8645C24.9978 90.6846 25.0645 90.7446 25.0645 90.8646L25.1045 93.5246C25.1045 93.5512 25.0645 93.5712 24.9845 93.5846C24.9178 93.5979 24.8778 93.5846 24.8645 93.5446C24.6511 92.7712 24.2911 92.1979 23.7845 91.8246C23.2778 91.4512 22.6111 91.2646 21.7845 91.2646H21.1845C20.7845 91.2646 20.4911 91.3512 20.3045 91.5246C20.1178 91.6979 20.0245 91.9646 20.0245 92.3246V96.4046H21.6845C22.4578 96.4046 23.0511 96.2712 23.4645 96.0046C23.8778 95.7379 24.0845 95.3646 24.0845 94.8846C24.0845 94.8446 24.1178 94.8246 24.1845 94.8246C24.2645 94.8246 24.3045 94.8446 24.3045 94.8846L24.2845 96.6846L24.3045 97.6446C24.3311 98.0979 24.3445 98.4579 24.3445 98.7246C24.3445 98.7512 24.3045 98.7646 24.2245 98.7646C24.1445 98.7646 24.1045 98.7512 24.1045 98.7246C24.1045 98.1779 23.8911 97.7512 23.4645 97.4446C23.0511 97.1246 22.4511 96.9646 21.6645 96.9646H20.0245V101.485C20.0245 101.871 20.0978 102.158 20.2445 102.345C20.3911 102.531 20.6245 102.625 20.9445 102.625H21.6045C22.6445 102.625 23.4778 102.411 24.1045 101.985C24.7311 101.558 25.1911 100.898 25.4845 100.005ZM33.9196 103.425C32.6796 103.425 31.5729 103.138 30.5996 102.565C29.6396 101.978 28.8929 101.191 28.3596 100.205C27.8396 99.2046 27.5796 98.1179 27.5796 96.9446C27.5796 95.5712 27.9263 94.3979 28.6196 93.4246C29.3129 92.4379 30.1996 91.6979 31.2796 91.2046C32.3729 90.7112 33.4863 90.4646 34.6196 90.4646C35.8863 90.4646 36.9996 90.7646 37.9596 91.3646C38.9196 91.9512 39.6529 92.7312 40.1596 93.7046C40.6796 94.6779 40.9396 95.7112 40.9396 96.8046C40.9396 98.0179 40.6196 99.1312 39.9796 100.145C39.3396 101.158 38.4796 101.958 37.3996 102.545C36.3329 103.131 35.1729 103.425 33.9196 103.425ZM34.5796 102.925C35.3263 102.925 35.9929 102.711 36.5796 102.285C37.1796 101.845 37.6463 101.211 37.9796 100.385C38.3129 99.5446 38.4796 98.5446 38.4796 97.3846C38.4796 96.1579 38.2929 95.0646 37.9196 94.1046C37.5463 93.1312 37.0063 92.3712 36.2996 91.8246C35.5929 91.2779 34.7663 91.0046 33.8196 91.0046C32.6063 91.0046 31.6729 91.4646 31.0196 92.3846C30.3663 93.2912 30.0396 94.5646 30.0396 96.2046C30.0396 97.4979 30.2329 98.6579 30.6196 99.6846C31.0196 100.698 31.5596 101.491 32.2396 102.065C32.9329 102.638 33.7129 102.925 34.5796 102.925ZM58.5721 102.945C58.5988 102.945 58.6121 102.985 58.6121 103.065C58.6121 103.145 58.5988 103.185 58.5721 103.185C58.1188 103.185 57.7588 103.178 57.4921 103.165L56.0121 103.145L54.5121 103.165C54.2588 103.178 53.9121 103.185 53.4721 103.185C53.4321 103.185 53.4121 103.145 53.4121 103.065C53.4121 102.985 53.4321 102.945 53.4721 102.945C54.0321 102.945 54.4121 102.878 54.6121 102.745C54.8121 102.611 54.9121 102.331 54.9121 101.905L54.8921 101.565L54.4721 93.3846L50.3521 103.045C50.3254 103.098 50.2721 103.125 50.1921 103.125C50.1121 103.125 50.0588 103.098 50.0321 103.045L44.9721 93.4246L44.8121 100.645C44.7988 101.365 44.9388 101.931 45.2321 102.345C45.5388 102.745 45.9654 102.945 46.5121 102.945C46.5521 102.945 46.5721 102.985 46.5721 103.065C46.5721 103.145 46.5521 103.185 46.5121 103.185C46.1521 103.185 45.8721 103.178 45.6721 103.165L44.5721 103.145L43.3121 103.165C43.0988 103.178 42.8121 103.185 42.4521 103.185C42.4121 103.185 42.3921 103.145 42.3921 103.065C42.3921 102.985 42.4121 102.945 42.4521 102.945C42.9988 102.945 43.4321 102.738 43.7521 102.325C44.0721 101.911 44.2388 101.351 44.2521 100.645L44.4321 92.3646L44.4121 92.3446C44.1454 91.8512 43.8654 91.4912 43.5721 91.2646C43.2921 91.0379 42.9654 90.9246 42.5921 90.9246C42.5521 90.9246 42.5321 90.8846 42.5321 90.8046C42.5321 90.7246 42.5521 90.6846 42.5921 90.6846L43.5321 90.7046C43.7188 90.7179 43.9588 90.7246 44.2521 90.7246L45.3121 90.7046C45.4321 90.6912 45.5854 90.6846 45.7721 90.6846C45.9454 90.6846 46.0788 90.7446 46.1721 90.8646C46.2654 90.9846 46.4388 91.2712 46.6921 91.7246L51.0521 99.9046L54.8521 91.1846C54.9321 90.9979 55.0121 90.8712 55.0921 90.8046C55.1854 90.7246 55.3054 90.6846 55.4521 90.6846C55.5721 90.6846 55.7054 90.6912 55.8521 90.7046C56.0121 90.7179 56.1921 90.7246 56.3921 90.7246L57.5721 90.7046C57.7588 90.6912 58.0254 90.6846 58.3721 90.6846C58.4121 90.6846 58.4321 90.7246 58.4321 90.8046C58.4321 90.8846 58.4121 90.9246 58.3721 90.9246C57.7454 90.9246 57.2921 91.0512 57.0121 91.3046C56.7321 91.5579 56.6054 91.9512 56.6321 92.4846L57.1121 101.565C57.1388 101.978 57.1854 102.278 57.2521 102.465C57.3321 102.651 57.4654 102.778 57.6521 102.845C57.8521 102.911 58.1588 102.945 58.5721 102.945ZM68.9805 100.005C68.9805 99.9779 69.0072 99.9646 69.0605 99.9646C69.1005 99.9646 69.1339 99.9779 69.1605 100.005C69.2005 100.018 69.2205 100.031 69.2205 100.045C69.0872 101.085 69.0205 102.031 69.0205 102.885C69.0205 102.991 69.0005 103.071 68.9605 103.125C68.9205 103.165 68.8405 103.185 68.7205 103.185H59.8805C59.8405 103.185 59.8205 103.145 59.8205 103.065C59.8205 102.985 59.8405 102.945 59.8805 102.945C60.3072 102.945 60.6139 102.911 60.8005 102.845C61.0005 102.778 61.1339 102.651 61.2005 102.465C61.2672 102.265 61.3005 101.965 61.3005 101.565V92.3046C61.3005 91.9046 61.2672 91.6112 61.2005 91.4246C61.1339 91.2379 61.0005 91.1112 60.8005 91.0446C60.6005 90.9646 60.2939 90.9246 59.8805 90.9246C59.8405 90.9246 59.8205 90.8846 59.8205 90.8046C59.8205 90.7246 59.8405 90.6846 59.8805 90.6846H68.3605C68.4939 90.6846 68.5605 90.7446 68.5605 90.8646L68.6005 93.5246C68.6005 93.5512 68.5605 93.5712 68.4805 93.5846C68.4139 93.5979 68.3739 93.5846 68.3605 93.5446C68.1472 92.7712 67.7872 92.1979 67.2805 91.8246C66.7739 91.4512 66.1072 91.2646 65.2805 91.2646H64.6805C64.2805 91.2646 63.9872 91.3512 63.8005 91.5246C63.6139 91.6979 63.5205 91.9646 63.5205 92.3246V96.4046H65.1805C65.9539 96.4046 66.5472 96.2712 66.9605 96.0046C67.3739 95.7379 67.5805 95.3646 67.5805 94.8846C67.5805 94.8446 67.6139 94.8246 67.6805 94.8246C67.7605 94.8246 67.8005 94.8446 67.8005 94.8846L67.7805 96.6846L67.8005 97.6446C67.8272 98.0979 67.8405 98.4579 67.8405 98.7246C67.8405 98.7512 67.8005 98.7646 67.7205 98.7646C67.6405 98.7646 67.6005 98.7512 67.6005 98.7246C67.6005 98.1779 67.3872 97.7512 66.9605 97.4446C66.5472 97.1246 65.9472 96.9646 65.1605 96.9646H63.5205V101.485C63.5205 101.871 63.5939 102.158 63.7405 102.345C63.8872 102.531 64.1205 102.625 64.4405 102.625H65.1005C66.1405 102.625 66.9739 102.411 67.6005 101.985C68.2272 101.558 68.6872 100.898 68.9805 100.005ZM74.5357 91.1446C72.949 91.1446 71.809 92.1779 71.1157 94.2446C71.1024 94.2846 71.0624 94.3046 70.9957 94.3046C70.929 94.2912 70.8957 94.2646 70.8957 94.2246C70.949 93.6912 71.009 93.0046 71.0757 92.1646C71.1424 91.3112 71.1757 90.6712 71.1757 90.2446C71.1757 90.1779 71.209 90.1446 71.2757 90.1446C71.3557 90.1446 71.3957 90.1779 71.3957 90.2446C71.3957 90.5379 71.7757 90.6846 72.5357 90.6846C73.6824 90.7246 75.0224 90.7446 76.5557 90.7446C77.3424 90.7446 78.1757 90.7312 79.0557 90.7046L80.4157 90.6846C80.9224 90.6846 81.289 90.6512 81.5157 90.5846C81.7557 90.5179 81.909 90.3846 81.9757 90.1846C81.989 90.1312 82.029 90.1046 82.0957 90.1046C82.1757 90.1046 82.2157 90.1312 82.2157 90.1846C82.1757 90.5846 82.129 91.2246 82.0757 92.1046C82.0357 92.9846 82.0157 93.6912 82.0157 94.2246C82.0157 94.2646 81.9824 94.2846 81.9157 94.2846C81.849 94.2846 81.809 94.2646 81.7957 94.2246C81.5957 93.1979 81.2224 92.4312 80.6757 91.9246C80.129 91.4046 79.4557 91.1446 78.6557 91.1446C78.269 91.1446 78.009 91.2312 77.8757 91.4046C77.7557 91.5646 77.6957 91.8779 77.6957 92.3446V101.565C77.6957 101.978 77.7357 102.278 77.8157 102.465C77.8957 102.651 78.049 102.778 78.2757 102.845C78.5024 102.911 78.8624 102.945 79.3557 102.945C79.3957 102.945 79.4157 102.985 79.4157 103.065C79.4157 103.145 79.3957 103.185 79.3557 103.185C78.8757 103.185 78.4957 103.178 78.2157 103.165L76.5557 103.145L74.9357 103.165C74.6557 103.178 74.269 103.185 73.7757 103.185C73.7357 103.185 73.7157 103.145 73.7157 103.065C73.7157 102.985 73.7357 102.945 73.7757 102.945C74.2557 102.945 74.609 102.911 74.8357 102.845C75.0757 102.778 75.2357 102.651 75.3157 102.465C75.409 102.265 75.4557 101.965 75.4557 101.565V92.3046C75.4557 91.8512 75.3957 91.5446 75.2757 91.3846C75.1557 91.2246 74.909 91.1446 74.5357 91.1446ZM97.1073 102.945C97.1339 102.945 97.1473 102.985 97.1473 103.065C97.1473 103.145 97.1339 103.185 97.1073 103.185H93.5473C93.2539 103.185 92.7073 102.658 91.9073 101.605C91.1073 100.538 90.1406 99.0512 89.0073 97.1446C88.9006 97.1579 88.7473 97.1646 88.5473 97.1646C88.0273 97.1646 87.6606 97.1579 87.4473 97.1446V101.565C87.4473 101.978 87.4806 102.278 87.5473 102.465C87.6139 102.651 87.7406 102.778 87.9273 102.845C88.1273 102.911 88.4406 102.945 88.8673 102.945C88.8939 102.945 88.9073 102.985 88.9073 103.065C88.9073 103.145 88.8939 103.185 88.8673 103.185C88.4273 103.185 88.0806 103.178 87.8273 103.165L86.3073 103.145L84.8473 103.165C84.5806 103.178 84.2206 103.185 83.7673 103.185C83.7273 103.185 83.7073 103.145 83.7073 103.065C83.7073 102.985 83.7273 102.945 83.7673 102.945C84.1939 102.945 84.5006 102.911 84.6873 102.845C84.8873 102.778 85.0206 102.651 85.0873 102.465C85.1673 102.265 85.2073 101.965 85.2073 101.565V92.3046C85.2073 91.9046 85.1739 91.6112 85.1073 91.4246C85.0406 91.2379 84.9073 91.1112 84.7073 91.0446C84.5073 90.9646 84.2006 90.9246 83.7873 90.9246C83.7606 90.9246 83.7473 90.8846 83.7473 90.8046C83.7473 90.7246 83.7606 90.6846 83.7873 90.6846L84.8473 90.7046C85.4606 90.7312 85.9473 90.7446 86.3073 90.7446C86.7606 90.7446 87.2339 90.7246 87.7273 90.6846C87.9006 90.6712 88.1139 90.6579 88.3673 90.6446C88.6339 90.6312 88.9273 90.6246 89.2473 90.6246C90.4606 90.6246 91.4006 90.8512 92.0673 91.3046C92.7339 91.7446 93.0673 92.3646 93.0673 93.1646C93.0673 93.8979 92.8673 94.5646 92.4673 95.1646C92.0673 95.7512 91.5339 96.2246 90.8673 96.5846C91.9339 98.1846 92.8273 99.4379 93.5473 100.345C94.2673 101.251 94.9073 101.911 95.4673 102.325C96.0273 102.738 96.5739 102.945 97.1073 102.945ZM87.4473 96.5846C87.7673 96.6379 88.1539 96.6646 88.6073 96.6646C89.3806 96.6646 89.9339 96.4512 90.2673 96.0246C90.6139 95.5846 90.7873 94.8846 90.7873 93.9246C90.7873 92.8312 90.6273 92.0779 90.3073 91.6646C89.9873 91.2512 89.5273 91.0446 88.9273 91.0446C88.3939 91.0446 88.0139 91.1446 87.7873 91.3446C87.5606 91.5446 87.4473 91.8779 87.4473 92.3446V96.5846ZM101.452 101.565C101.452 101.978 101.485 102.278 101.552 102.465C101.619 102.651 101.745 102.778 101.932 102.845C102.132 102.911 102.445 102.945 102.872 102.945C102.912 102.945 102.932 102.985 102.932 103.065C102.932 103.145 102.912 103.185 102.872 103.185C102.432 103.185 102.085 103.178 101.832 103.165L100.312 103.145L98.8321 103.165C98.5654 103.178 98.2054 103.185 97.7521 103.185C97.7254 103.185 97.7121 103.145 97.7121 103.065C97.7121 102.985 97.7254 102.945 97.7521 102.945C98.1788 102.945 98.4921 102.911 98.6921 102.845C98.8921 102.778 99.0254 102.651 99.0921 102.465C99.1721 102.265 99.2121 101.965 99.2121 101.565V92.3046C99.2121 91.9046 99.1721 91.6112 99.0921 91.4246C99.0254 91.2379 98.8921 91.1112 98.6921 91.0446C98.4921 90.9646 98.1788 90.9246 97.7521 90.9246C97.7254 90.9246 97.7121 90.8846 97.7121 90.8046C97.7121 90.7246 97.7254 90.6846 97.7521 90.6846L98.8321 90.7046C99.4454 90.7312 99.9388 90.7446 100.312 90.7446C100.725 90.7446 101.239 90.7312 101.852 90.7046L102.872 90.6846C102.912 90.6846 102.932 90.7246 102.932 90.8046C102.932 90.8846 102.912 90.9246 102.872 90.9246C102.459 90.9246 102.152 90.9646 101.952 91.0446C101.752 91.1246 101.619 91.2646 101.552 91.4646C101.485 91.6512 101.452 91.9446 101.452 92.3446V101.565ZM118.088 102.945C118.155 102.945 118.188 102.985 118.188 103.065C118.188 103.145 118.155 103.185 118.088 103.185C117.821 103.185 117.408 103.171 116.848 103.145C116.261 103.118 115.841 103.105 115.588 103.105C115.255 103.105 114.848 103.118 114.368 103.145C113.915 103.171 113.555 103.185 113.288 103.185C113.235 103.185 113.208 103.145 113.208 103.065C113.208 102.985 113.235 102.945 113.288 102.945C113.635 102.945 113.881 102.911 114.028 102.845C114.188 102.765 114.268 102.631 114.268 102.445C114.268 102.218 114.135 101.838 113.868 101.305L112.508 98.6046H107.588L106.808 100.345C106.635 100.731 106.548 101.091 106.548 101.425C106.548 101.905 106.715 102.278 107.048 102.545C107.395 102.811 107.855 102.945 108.428 102.945C108.495 102.945 108.528 102.985 108.528 103.065C108.528 103.145 108.495 103.185 108.428 103.185C108.188 103.185 107.841 103.171 107.388 103.145C106.881 103.118 106.441 103.105 106.068 103.105C105.708 103.105 105.275 103.118 104.768 103.145C104.315 103.171 103.948 103.185 103.668 103.185C103.615 103.185 103.588 103.145 103.588 103.065C103.588 102.985 103.615 102.945 103.668 102.945C104.041 102.945 104.355 102.871 104.608 102.725C104.861 102.565 105.115 102.291 105.368 101.905C105.621 101.505 105.921 100.918 106.268 100.145L110.608 90.6046C110.635 90.5646 110.695 90.5446 110.788 90.5446C110.895 90.5446 110.955 90.5646 110.968 90.6046L115.968 100.445C116.435 101.391 116.821 102.045 117.128 102.405C117.435 102.765 117.755 102.945 118.088 102.945ZM107.848 98.0446H112.208L109.908 93.4846L107.848 98.0446Z" fill="white"/>
</svg>
