<svg width="28" height="32" viewBox="0 0 28 32" fill="none" xmlns="http://www.w3.org/2000/svg">
<path d="M26.2448 31.3346C11.3155 31.3576 -0.0157336 18.7996 1.63987e-05 2.59038C1.63987e-05 1.53047 0.784016 0.667969 1.75002 0.667969H6.37002C7.23627 0.667969 7.97302 1.36564 8.10077 2.3048C8.40545 4.55699 9.00363 6.74964 9.87702 8.81572L10.0573 9.24122C10.1783 9.52755 10.2044 9.85118 10.1309 10.1563C10.0574 10.4614 9.88904 10.7289 9.65477 10.9126C8.22327 12.0319 7.67727 14.284 8.79202 16.0396C10.1955 18.2502 11.9472 20.1693 13.965 21.7072C15.5698 22.9262 17.626 22.3282 18.6463 20.7623C18.8138 20.5049 19.0582 20.3198 19.3372 20.239C19.6162 20.1581 19.9122 20.1866 20.174 20.3196L20.5608 20.5151C22.4473 21.4734 24.4493 22.1289 26.5055 22.4624C27.363 22.6023 28 23.4092 28 24.3599V29.418C28 29.6698 27.9547 29.9192 27.8666 30.1519C27.7786 30.3846 27.6495 30.5959 27.4868 30.7739C27.3241 30.9519 27.131 31.0931 26.9185 31.1893C26.706 31.2855 26.4782 31.3349 26.2483 31.3346H26.2448Z" fill="#B48C74"/>
</svg>
