<svg width="27" height="17" viewBox="0 0 27 17" fill="none" xmlns="http://www.w3.org/2000/svg">
<path d="M25.3793 16.161H22.5274C21.4485 16.161 21.124 15.2873 19.1888 13.3521C17.5 11.7239 16.7865 11.5206 16.3585 11.5206C15.7681 11.5206 15.6059 11.6828 15.6059 12.4979V15.0625C15.6059 15.7564 15.3811 16.163 13.5691 16.163C11.8106 16.0448 10.1053 15.5105 8.59366 14.6042C7.08205 13.6978 5.8074 12.4453 4.87468 10.9498C2.66036 8.19373 1.11962 4.95899 0.375 1.50284C0.375 1.07477 0.537239 0.687741 1.35234 0.687741H4.20227C4.93528 0.687741 5.19916 1.01417 5.4865 1.76673C6.87042 5.84029 9.23167 9.38218 10.1895 9.38218C10.5569 9.38218 10.7172 9.21994 10.7172 8.30319V4.10844C10.596 2.1948 9.57961 2.03256 9.57961 1.3406C9.59267 1.15809 9.6763 0.987847 9.81278 0.865967C9.94925 0.744087 10.1278 0.680159 10.3107 0.687741H14.7908C15.4026 0.687741 15.6059 0.992672 15.6059 1.72568V7.38644C15.6059 7.99826 15.8698 8.20155 16.0535 8.20155C16.421 8.20155 16.7044 7.99826 17.3768 7.32585C18.8211 5.56458 20.0011 3.60233 20.8796 1.50089C20.9694 1.24847 21.1394 1.03236 21.3635 0.88554C21.5876 0.738721 21.8536 0.669255 22.1209 0.687741H24.9727C25.8269 0.687741 26.0087 1.11582 25.8269 1.72568C24.79 4.04868 23.5069 6.25379 21.9997 8.30319C21.6928 8.77232 21.5696 9.01665 21.9997 9.56592C22.2831 9.99399 23.2819 10.8286 23.9544 11.6222C24.9315 12.5969 25.743 13.7246 26.3567 14.9608C26.601 15.7544 26.1925 16.161 25.3793 16.161Z" fill="white"/>
</svg>
