<svg width="31" height="21" viewBox="0 0 31 21" fill="none" xmlns="http://www.w3.org/2000/svg">
<path d="M29.8718 3.32282C29.702 2.71723 29.3711 2.16896 28.9144 1.7363C28.4449 1.29033 27.8693 0.97132 27.2422 0.809375C24.895 0.191009 15.4913 0.191009 15.4913 0.191009C11.5709 0.146428 7.6516 0.342508 3.75533 0.778145C3.12816 0.952053 2.5537 1.27819 2.08306 1.72756C1.62062 2.17228 1.28567 2.72069 1.11069 3.32157C0.690362 5.58484 0.486138 7.88292 0.500771 10.1848C0.485773 12.4846 0.689496 14.782 1.11069 17.048C1.28192 17.6464 1.61562 18.1923 2.07931 18.6333C2.543 19.0743 3.12042 19.3928 3.75533 19.5615C6.13376 20.1786 15.4913 20.1786 15.4913 20.1786C19.4166 20.2232 23.3409 20.0272 27.2422 19.5915C27.8693 19.4295 28.4449 19.1105 28.9144 18.6645C29.371 18.232 29.7014 17.6836 29.8706 17.078C30.3019 14.8156 30.5116 12.5166 30.4967 10.2135C30.5292 7.90073 30.3197 5.59086 29.8718 3.32157V3.32282ZM12.5017 14.4622V5.90871L20.3256 10.1861L12.5017 14.4622Z" fill="white"/>
</svg>
